G04 #@! TF.FileFunction,Legend,Bot*
%FSLAX46Y46*%
G04 Gerber Fmt 4.6, Leading zero omitted, Abs format (unit mm)*
G04 Created by KiCad (PCBNEW 4.0.4-stable) date 06/04/17 22:37:21*
%MOMM*%
%LPD*%
G01*
G04 APERTURE LIST*
%ADD10C,0.100000*%
%ADD11C,0.150000*%
G04 APERTURE END LIST*
D10*
D11*
X160535047Y-110974714D02*
X160344571Y-111641381D01*
X160154094Y-111165190D01*
X159963618Y-111641381D01*
X159773142Y-110974714D01*
X159487428Y-110974714D02*
X159296952Y-111641381D01*
X159106475Y-111165190D01*
X158915999Y-111641381D01*
X158725523Y-110974714D01*
X158439809Y-110974714D02*
X158249333Y-111641381D01*
X158058856Y-111165190D01*
X157868380Y-111641381D01*
X157677904Y-110974714D01*
X157296952Y-111546143D02*
X157249333Y-111593762D01*
X157296952Y-111641381D01*
X157344571Y-111593762D01*
X157296952Y-111546143D01*
X157296952Y-111641381D01*
X156868381Y-111593762D02*
X156773143Y-111641381D01*
X156582667Y-111641381D01*
X156487428Y-111593762D01*
X156439809Y-111498524D01*
X156439809Y-111450905D01*
X156487428Y-111355667D01*
X156582667Y-111308048D01*
X156725524Y-111308048D01*
X156820762Y-111260429D01*
X156868381Y-111165190D01*
X156868381Y-111117571D01*
X156820762Y-111022333D01*
X156725524Y-110974714D01*
X156582667Y-110974714D01*
X156487428Y-111022333D01*
X156011238Y-110974714D02*
X156011238Y-111641381D01*
X156011238Y-111069952D02*
X155963619Y-111022333D01*
X155868381Y-110974714D01*
X155725523Y-110974714D01*
X155630285Y-111022333D01*
X155582666Y-111117571D01*
X155582666Y-111641381D01*
X154677904Y-111641381D02*
X154677904Y-111117571D01*
X154725523Y-111022333D01*
X154820761Y-110974714D01*
X155011238Y-110974714D01*
X155106476Y-111022333D01*
X154677904Y-111593762D02*
X154773142Y-111641381D01*
X155011238Y-111641381D01*
X155106476Y-111593762D01*
X155154095Y-111498524D01*
X155154095Y-111403286D01*
X155106476Y-111308048D01*
X155011238Y-111260429D01*
X154773142Y-111260429D01*
X154677904Y-111212810D01*
X154201714Y-110974714D02*
X154201714Y-111974714D01*
X154201714Y-111022333D02*
X154106476Y-110974714D01*
X153915999Y-110974714D01*
X153820761Y-111022333D01*
X153773142Y-111069952D01*
X153725523Y-111165190D01*
X153725523Y-111450905D01*
X153773142Y-111546143D01*
X153820761Y-111593762D01*
X153915999Y-111641381D01*
X154106476Y-111641381D01*
X154201714Y-111593762D01*
X153154095Y-111641381D02*
X153249333Y-111593762D01*
X153296952Y-111546143D01*
X153344571Y-111450905D01*
X153344571Y-111165190D01*
X153296952Y-111069952D01*
X153249333Y-111022333D01*
X153154095Y-110974714D01*
X153011237Y-110974714D01*
X152915999Y-111022333D01*
X152868380Y-111069952D01*
X152820761Y-111165190D01*
X152820761Y-111450905D01*
X152868380Y-111546143D01*
X152915999Y-111593762D01*
X153011237Y-111641381D01*
X153154095Y-111641381D01*
X152392190Y-110974714D02*
X152392190Y-111641381D01*
X152392190Y-111069952D02*
X152344571Y-111022333D01*
X152249333Y-110974714D01*
X152106475Y-110974714D01*
X152011237Y-111022333D01*
X151963618Y-111117571D01*
X151963618Y-111641381D01*
X151058856Y-111641381D02*
X151058856Y-111117571D01*
X151106475Y-111022333D01*
X151201713Y-110974714D01*
X151392190Y-110974714D01*
X151487428Y-111022333D01*
X151058856Y-111593762D02*
X151154094Y-111641381D01*
X151392190Y-111641381D01*
X151487428Y-111593762D01*
X151535047Y-111498524D01*
X151535047Y-111403286D01*
X151487428Y-111308048D01*
X151392190Y-111260429D01*
X151154094Y-111260429D01*
X151058856Y-111212810D01*
X150582666Y-111641381D02*
X150582666Y-110974714D01*
X150582666Y-110641381D02*
X150630285Y-110689000D01*
X150582666Y-110736619D01*
X150535047Y-110689000D01*
X150582666Y-110641381D01*
X150582666Y-110736619D01*
X150106476Y-111641381D02*
X150106476Y-110974714D01*
X150106476Y-111165190D02*
X150058857Y-111069952D01*
X150011238Y-111022333D01*
X149916000Y-110974714D01*
X149820761Y-110974714D01*
X149487428Y-111546143D02*
X149439809Y-111593762D01*
X149487428Y-111641381D01*
X149535047Y-111593762D01*
X149487428Y-111546143D01*
X149487428Y-111641381D01*
X148582666Y-111593762D02*
X148677904Y-111641381D01*
X148868381Y-111641381D01*
X148963619Y-111593762D01*
X149011238Y-111546143D01*
X149058857Y-111450905D01*
X149058857Y-111165190D01*
X149011238Y-111069952D01*
X148963619Y-111022333D01*
X148868381Y-110974714D01*
X148677904Y-110974714D01*
X148582666Y-111022333D01*
X148011238Y-111641381D02*
X148106476Y-111593762D01*
X148154095Y-111546143D01*
X148201714Y-111450905D01*
X148201714Y-111165190D01*
X148154095Y-111069952D01*
X148106476Y-111022333D01*
X148011238Y-110974714D01*
X147868380Y-110974714D01*
X147773142Y-111022333D01*
X147725523Y-111069952D01*
X147677904Y-111165190D01*
X147677904Y-111450905D01*
X147725523Y-111546143D01*
X147773142Y-111593762D01*
X147868380Y-111641381D01*
X148011238Y-111641381D01*
X147249333Y-111641381D02*
X147249333Y-110974714D01*
X147249333Y-111069952D02*
X147201714Y-111022333D01*
X147106476Y-110974714D01*
X146963618Y-110974714D01*
X146868380Y-111022333D01*
X146820761Y-111117571D01*
X146820761Y-111641381D01*
X146820761Y-111117571D02*
X146773142Y-111022333D01*
X146677904Y-110974714D01*
X146535047Y-110974714D01*
X146439809Y-111022333D01*
X146392190Y-111117571D01*
X146392190Y-111641381D01*
X161487429Y-113291381D02*
X161963620Y-113291381D01*
X161963620Y-112291381D01*
X161011239Y-113291381D02*
X161106477Y-113243762D01*
X161154096Y-113196143D01*
X161201715Y-113100905D01*
X161201715Y-112815190D01*
X161154096Y-112719952D01*
X161106477Y-112672333D01*
X161011239Y-112624714D01*
X160868381Y-112624714D01*
X160773143Y-112672333D01*
X160725524Y-112719952D01*
X160677905Y-112815190D01*
X160677905Y-113100905D01*
X160725524Y-113196143D01*
X160773143Y-113243762D01*
X160868381Y-113291381D01*
X161011239Y-113291381D01*
X160249334Y-113291381D02*
X160249334Y-112624714D01*
X160249334Y-112815190D02*
X160201715Y-112719952D01*
X160154096Y-112672333D01*
X160058858Y-112624714D01*
X159963619Y-112624714D01*
X159201714Y-113291381D02*
X159201714Y-112767571D01*
X159249333Y-112672333D01*
X159344571Y-112624714D01*
X159535048Y-112624714D01*
X159630286Y-112672333D01*
X159201714Y-113243762D02*
X159296952Y-113291381D01*
X159535048Y-113291381D01*
X159630286Y-113243762D01*
X159677905Y-113148524D01*
X159677905Y-113053286D01*
X159630286Y-112958048D01*
X159535048Y-112910429D01*
X159296952Y-112910429D01*
X159201714Y-112862810D01*
X158820762Y-112624714D02*
X158630286Y-113291381D01*
X158439809Y-112815190D01*
X158249333Y-113291381D01*
X158058857Y-112624714D01*
X157249333Y-113291381D02*
X157249333Y-112767571D01*
X157296952Y-112672333D01*
X157392190Y-112624714D01*
X157582667Y-112624714D01*
X157677905Y-112672333D01*
X157249333Y-113243762D02*
X157344571Y-113291381D01*
X157582667Y-113291381D01*
X157677905Y-113243762D01*
X157725524Y-113148524D01*
X157725524Y-113053286D01*
X157677905Y-112958048D01*
X157582667Y-112910429D01*
X157344571Y-112910429D01*
X157249333Y-112862810D01*
X156773143Y-112624714D02*
X156773143Y-113291381D01*
X156773143Y-112719952D02*
X156725524Y-112672333D01*
X156630286Y-112624714D01*
X156487428Y-112624714D01*
X156392190Y-112672333D01*
X156344571Y-112767571D01*
X156344571Y-113291381D01*
X154535047Y-113196143D02*
X154582666Y-113243762D01*
X154725523Y-113291381D01*
X154820761Y-113291381D01*
X154963619Y-113243762D01*
X155058857Y-113148524D01*
X155106476Y-113053286D01*
X155154095Y-112862810D01*
X155154095Y-112719952D01*
X155106476Y-112529476D01*
X155058857Y-112434238D01*
X154963619Y-112339000D01*
X154820761Y-112291381D01*
X154725523Y-112291381D01*
X154582666Y-112339000D01*
X154535047Y-112386619D01*
X153963619Y-113291381D02*
X154058857Y-113243762D01*
X154106476Y-113196143D01*
X154154095Y-113100905D01*
X154154095Y-112815190D01*
X154106476Y-112719952D01*
X154058857Y-112672333D01*
X153963619Y-112624714D01*
X153820761Y-112624714D01*
X153725523Y-112672333D01*
X153677904Y-112719952D01*
X153630285Y-112815190D01*
X153630285Y-113100905D01*
X153677904Y-113196143D01*
X153725523Y-113243762D01*
X153820761Y-113291381D01*
X153963619Y-113291381D01*
X153201714Y-113291381D02*
X153201714Y-112624714D01*
X153201714Y-112719952D02*
X153154095Y-112672333D01*
X153058857Y-112624714D01*
X152915999Y-112624714D01*
X152820761Y-112672333D01*
X152773142Y-112767571D01*
X152773142Y-113291381D01*
X152773142Y-112767571D02*
X152725523Y-112672333D01*
X152630285Y-112624714D01*
X152487428Y-112624714D01*
X152392190Y-112672333D01*
X152344571Y-112767571D01*
X152344571Y-113291381D01*
X151868381Y-113291381D02*
X151868381Y-112624714D01*
X151868381Y-112719952D02*
X151820762Y-112672333D01*
X151725524Y-112624714D01*
X151582666Y-112624714D01*
X151487428Y-112672333D01*
X151439809Y-112767571D01*
X151439809Y-113291381D01*
X151439809Y-112767571D02*
X151392190Y-112672333D01*
X151296952Y-112624714D01*
X151154095Y-112624714D01*
X151058857Y-112672333D01*
X151011238Y-112767571D01*
X151011238Y-113291381D01*
X150106476Y-112624714D02*
X150106476Y-113291381D01*
X150535048Y-112624714D02*
X150535048Y-113148524D01*
X150487429Y-113243762D01*
X150392191Y-113291381D01*
X150249333Y-113291381D01*
X150154095Y-113243762D01*
X150106476Y-113196143D01*
X149630286Y-112624714D02*
X149630286Y-113291381D01*
X149630286Y-112719952D02*
X149582667Y-112672333D01*
X149487429Y-112624714D01*
X149344571Y-112624714D01*
X149249333Y-112672333D01*
X149201714Y-112767571D01*
X149201714Y-113291381D01*
X148725524Y-113291381D02*
X148725524Y-112624714D01*
X148725524Y-112291381D02*
X148773143Y-112339000D01*
X148725524Y-112386619D01*
X148677905Y-112339000D01*
X148725524Y-112291381D01*
X148725524Y-112386619D01*
X147820762Y-113243762D02*
X147916000Y-113291381D01*
X148106477Y-113291381D01*
X148201715Y-113243762D01*
X148249334Y-113196143D01*
X148296953Y-113100905D01*
X148296953Y-112815190D01*
X148249334Y-112719952D01*
X148201715Y-112672333D01*
X148106477Y-112624714D01*
X147916000Y-112624714D01*
X147820762Y-112672333D01*
X146963619Y-113291381D02*
X146963619Y-112767571D01*
X147011238Y-112672333D01*
X147106476Y-112624714D01*
X147296953Y-112624714D01*
X147392191Y-112672333D01*
X146963619Y-113243762D02*
X147058857Y-113291381D01*
X147296953Y-113291381D01*
X147392191Y-113243762D01*
X147439810Y-113148524D01*
X147439810Y-113053286D01*
X147392191Y-112958048D01*
X147296953Y-112910429D01*
X147058857Y-112910429D01*
X146963619Y-112862810D01*
X146630286Y-112624714D02*
X146249334Y-112624714D01*
X146487429Y-112291381D02*
X146487429Y-113148524D01*
X146439810Y-113243762D01*
X146344572Y-113291381D01*
X146249334Y-113291381D01*
X145773143Y-113291381D02*
X145868381Y-113243762D01*
X145916000Y-113196143D01*
X145963619Y-113100905D01*
X145963619Y-112815190D01*
X145916000Y-112719952D01*
X145868381Y-112672333D01*
X145773143Y-112624714D01*
X145630285Y-112624714D01*
X145535047Y-112672333D01*
X145487428Y-112719952D01*
X145439809Y-112815190D01*
X145439809Y-113100905D01*
X145487428Y-113196143D01*
X145535047Y-113243762D01*
X145630285Y-113291381D01*
X145773143Y-113291381D01*
X145011238Y-113291381D02*
X145011238Y-112624714D01*
X145011238Y-112815190D02*
X144963619Y-112719952D01*
X144916000Y-112672333D01*
X144820762Y-112624714D01*
X144725523Y-112624714D01*
M02*
