G04 #@! TF.FileFunction,Copper,L1,Top,Signal*
%FSLAX46Y46*%
G04 Gerber Fmt 4.6, Leading zero omitted, Abs format (unit mm)*
G04 Created by KiCad (PCBNEW 4.0.4-stable) date 06/04/17 22:37:21*
%MOMM*%
%LPD*%
G01*
G04 APERTURE LIST*
%ADD10C,0.100000*%
%ADD11R,1.700000X1.700000*%
%ADD12O,1.700000X1.700000*%
%ADD13R,1.700000X2.000000*%
%ADD14C,0.600000*%
%ADD15C,0.250000*%
G04 APERTURE END LIST*
D10*
G36*
X154485965Y-106590688D02*
X155193072Y-105883581D01*
X156607285Y-107297794D01*
X155900178Y-108004901D01*
X154485965Y-106590688D01*
X154485965Y-106590688D01*
G37*
G36*
X155493592Y-105583060D02*
X156200699Y-104875953D01*
X157614912Y-106290166D01*
X156907805Y-106997273D01*
X155493592Y-105583060D01*
X155493592Y-105583060D01*
G37*
G36*
X156501220Y-104575433D02*
X157208327Y-103868326D01*
X158622540Y-105282539D01*
X157915433Y-105989646D01*
X156501220Y-104575433D01*
X156501220Y-104575433D01*
G37*
G36*
X151480761Y-99554975D02*
X152187868Y-98847868D01*
X153602081Y-100262081D01*
X152894974Y-100969188D01*
X151480761Y-99554975D01*
X151480761Y-99554975D01*
G37*
G36*
X149465507Y-101570229D02*
X150172614Y-100863122D01*
X151586827Y-102277335D01*
X150879720Y-102984442D01*
X149465507Y-101570229D01*
X149465507Y-101570229D01*
G37*
G36*
X150473134Y-100562602D02*
X151180241Y-99855495D01*
X152594454Y-101269708D01*
X151887347Y-101976815D01*
X150473134Y-100562602D01*
X150473134Y-100562602D01*
G37*
G36*
X149712994Y-106343200D02*
X151127208Y-104928986D01*
X152541422Y-106343200D01*
X151127208Y-107757414D01*
X149712994Y-106343200D01*
X149712994Y-106343200D01*
G37*
G36*
X155652691Y-100544924D02*
X157066905Y-99130710D01*
X158481119Y-100544924D01*
X157066905Y-101959138D01*
X155652691Y-100544924D01*
X155652691Y-100544924D01*
G37*
D11*
X146050000Y-124460000D03*
D12*
X148590000Y-124460000D03*
X151130000Y-124460000D03*
X153670000Y-124460000D03*
X156210000Y-124460000D03*
X158750000Y-124460000D03*
X161290000Y-124460000D03*
D13*
X146050000Y-118840000D03*
X146050000Y-114840000D03*
X149860000Y-118840000D03*
X149860000Y-114840000D03*
X153670000Y-118840000D03*
X153670000Y-114840000D03*
X157480000Y-118840000D03*
X157480000Y-114840000D03*
X161290000Y-118840000D03*
X161290000Y-114840000D03*
D14*
X146050000Y-119189500D03*
X157480000Y-118840000D03*
X153670000Y-118840000D03*
X149860000Y-118840000D03*
X161417000Y-118999000D03*
D15*
X157480000Y-114840000D02*
X158401000Y-114840000D01*
X159194500Y-121602500D02*
X156337000Y-124460000D01*
X159194500Y-115633500D02*
X159194500Y-121602500D01*
X158401000Y-114840000D02*
X159194500Y-115633500D01*
X156337000Y-124460000D02*
X156210000Y-124460000D01*
X155546625Y-106944241D02*
X155546625Y-111096625D01*
X157480000Y-113030000D02*
X157480000Y-114840000D01*
X155546625Y-111096625D02*
X157480000Y-113030000D01*
X161290000Y-114840000D02*
X161576000Y-114840000D01*
X161576000Y-114840000D02*
X162687000Y-115951000D01*
X160464500Y-122745500D02*
X158750000Y-124460000D01*
X160464500Y-122174000D02*
X160464500Y-122745500D01*
X162687000Y-119951500D02*
X160464500Y-122174000D01*
X162687000Y-115951000D02*
X162687000Y-119951500D01*
X157561880Y-104928986D02*
X158014986Y-104928986D01*
X158014986Y-104928986D02*
X160020000Y-106934000D01*
X160020000Y-106934000D02*
X160020000Y-112966500D01*
X160020000Y-112966500D02*
X161290000Y-114236500D01*
X161290000Y-114236500D02*
X161290000Y-114840000D01*
X146050000Y-114840000D02*
X147733000Y-114840000D01*
X148018500Y-115125500D02*
X148018500Y-123888500D01*
X147733000Y-114840000D02*
X148018500Y-115125500D01*
X148018500Y-123888500D02*
X148590000Y-124460000D01*
X146050000Y-114840000D02*
X146050000Y-107950000D01*
X149152893Y-96520000D02*
X152541421Y-99908528D01*
X148590000Y-96520000D02*
X149152893Y-96520000D01*
X143510000Y-101600000D02*
X148590000Y-96520000D01*
X143510000Y-105410000D02*
X143510000Y-101600000D01*
X146050000Y-107950000D02*
X143510000Y-105410000D01*
X153670000Y-114840000D02*
X155226000Y-114840000D01*
X155511500Y-122618500D02*
X153670000Y-124460000D01*
X155511500Y-115125500D02*
X155511500Y-122618500D01*
X155226000Y-114840000D02*
X155511500Y-115125500D01*
X150526167Y-101923782D02*
X149536218Y-101923782D01*
X153670000Y-113030000D02*
X153670000Y-114840000D01*
X152400000Y-111760000D02*
X153670000Y-113030000D01*
X149860000Y-111760000D02*
X152400000Y-111760000D01*
X148590000Y-110490000D02*
X149860000Y-111760000D01*
X148590000Y-102870000D02*
X148590000Y-110490000D01*
X149536218Y-101923782D02*
X148590000Y-102870000D01*
X149860000Y-114840000D02*
X151098500Y-114840000D01*
X151130000Y-122682000D02*
X151130000Y-124460000D01*
X151638000Y-122174000D02*
X151130000Y-122682000D01*
X151638000Y-115379500D02*
X151638000Y-122174000D01*
X151098500Y-114840000D02*
X151638000Y-115379500D01*
X151533794Y-100916155D02*
X151533794Y-100733794D01*
X151533794Y-100733794D02*
X148590000Y-97790000D01*
X148590000Y-97790000D02*
X144780000Y-101600000D01*
X144780000Y-101600000D02*
X144780000Y-104140000D01*
X144780000Y-104140000D02*
X147320000Y-106680000D01*
X147320000Y-106680000D02*
X147320000Y-110490000D01*
X147320000Y-110490000D02*
X149860000Y-113030000D01*
X149860000Y-113030000D02*
X149860000Y-114840000D01*
X146050000Y-119189500D02*
X146050000Y-118840000D01*
X161290000Y-118872000D02*
X161417000Y-118999000D01*
X161290000Y-118872000D02*
X161290000Y-118840000D01*
X146050000Y-124460000D02*
X146050000Y-118840000D01*
X161290000Y-124460000D02*
X161290000Y-122174000D01*
X154876500Y-104648000D02*
X156165113Y-105936613D01*
X154876500Y-103441500D02*
X154876500Y-104648000D01*
X155511500Y-102806500D02*
X154876500Y-103441500D01*
X158051500Y-102806500D02*
X155511500Y-102806500D01*
X161290000Y-106045000D02*
X158051500Y-102806500D01*
X161290000Y-109156500D02*
X161290000Y-106045000D01*
X161417000Y-109283500D02*
X161290000Y-109156500D01*
X161417000Y-111379000D02*
X161417000Y-109283500D01*
X164147500Y-114109500D02*
X161417000Y-111379000D01*
X164147500Y-119316500D02*
X164147500Y-114109500D01*
X161290000Y-122174000D02*
X164147500Y-119316500D01*
X156165113Y-105936613D02*
X156554252Y-105936613D01*
M02*
